# Blender v2.90.1 OBJ File: 'Room.blend'
# www.blender.org
mtllib Monitor.mtl
o Cube_Cube.001
v -0.073637 -0.005124 0.132195
v -0.007646 0.005124 0.052877
v -0.073637 -0.005124 -0.132195
v -0.007646 0.005124 -0.052877
v 0.071164 -0.005124 0.132195
v 0.007646 0.005124 0.052877
v 0.071164 -0.005124 -0.132195
v 0.007646 0.005124 -0.052877
v -0.073637 0.005124 0.132195
v -0.073637 0.005124 -0.132195
v 0.071164 0.005124 -0.132195
v 0.071164 0.005124 0.132195
v -0.007646 0.297298 0.052877
v -0.007646 0.297298 -0.052877
v 0.007646 0.297298 -0.052877
v 0.007646 0.297298 0.052877
v 0.007646 0.260896 -0.052877
v 0.007646 0.260896 0.052877
v -0.007646 0.260896 0.052877
v -0.007646 0.260896 -0.052877
v 0.034630 0.314587 -0.103103
v 0.034630 0.314587 0.103103
v 0.034630 0.243607 -0.103103
v 0.034630 0.243607 0.103103
v 0.063500 0.428837 -0.308790
v 0.063500 0.428837 0.308790
v 0.063500 0.129357 -0.308790
v 0.063500 0.129357 0.308790
v 0.076399 0.420970 -0.300923
v 0.076399 0.420970 0.300923
v 0.076399 0.137224 -0.300923
v 0.076399 0.137224 0.300923
v 0.007646 0.133010 0.052877
v -0.007646 0.133010 -0.052877
v 0.007646 0.133010 -0.052877
v -0.007646 0.133010 0.052877
v 0.076399 0.428837 -0.308790
v 0.076399 0.428837 0.308790
v 0.076399 0.129357 -0.308790
v 0.076399 0.129357 0.308790
v 0.070409 0.420970 -0.300923
v 0.070409 0.420970 0.300923
v 0.070409 0.137224 -0.300923
v 0.070409 0.137224 0.300923
vt 0.375000 0.000000
vt 0.625000 0.000000
vt 0.625000 0.250000
vt 0.375000 0.250000
vt 0.625000 0.500000
vt 0.375000 0.500000
vt 0.625000 0.750000
vt 0.375000 0.750000
vt 0.625000 1.000000
vt 0.375000 1.000000
vt 0.125000 0.500000
vt 0.125000 0.750000
vt 0.738306 0.613306
vt 0.738306 0.613306
vt 0.738306 0.613306
vt 0.738306 0.613306
vt 0.761694 0.636694
vt 0.761694 0.613306
vt 0.875000 0.500000
vt 0.875000 0.750000
vt 0.738306 0.613306
vt 0.738306 0.636694
vt 0.761694 0.613306
vt 0.761694 0.636694
vt 0.738306 0.636694
vt 0.761694 0.613306
vt 0.761694 0.636694
vt 0.738306 0.636694
vt 0.738306 0.613306
vt 0.761694 0.613306
vt 0.761694 0.636694
vt 0.738306 0.636694
vt 0.738306 0.636694
vt 0.738306 0.636694
vt 0.738306 0.636694
vt 0.738306 0.636694
vt 0.738306 0.613306
vt 0.738306 0.613306
vt 0.738306 0.636694
vt 0.738306 0.613306
vt 0.738306 0.636397
vt 0.738306 0.636397
vt 0.738306 0.636397
vt 0.738306 0.636397
vt 0.738306 0.613306
vt 0.738306 0.636694
vt 0.738306 0.613604
vt 0.738306 0.613604
vt 0.738306 0.613604
vt 0.738306 0.613604
vn -1.0000 0.0000 0.0000
vn 0.0000 0.0000 -1.0000
vn 1.0000 0.0000 0.0000
vn 0.0000 0.0000 1.0000
vn 0.0000 -1.0000 0.0000
vn -0.8809 0.0000 -0.4733
vn 0.0000 1.0000 0.0000
vn -0.9903 0.0000 0.1390
vn -0.5395 -0.8420 0.0000
vn -0.5395 0.8420 0.0000
vn -0.8809 0.0000 0.4733
vn -0.9695 0.2450 0.0000
vn -0.9695 -0.2450 0.0000
vn -0.9903 0.0000 -0.1390
usemtl None
s off
f 1/1/1 9/2/1 10/3/1 3/4/1
f 3/4/2 10/3/2 11/5/2 7/6/2
f 7/6/3 11/5/3 12/7/3 5/8/3
f 5/8/4 12/7/4 9/9/4 1/10/4
f 3/11/5 7/6/5 5/8/5 1/12/5
f 17/13/6 15/14/6 21/15/6 23/16/6
f 2/17/7 4/18/7 10/19/7 9/20/7
f 4/18/7 8/21/7 11/5/7 10/19/7
f 8/21/7 6/22/7 12/7/7 11/5/7
f 6/22/7 2/17/7 9/20/7 12/7/7
f 15/14/7 14/23/7 13/24/7 16/25/7
f 20/26/1 19/27/1 13/24/1 14/23/1
f 19/27/4 18/28/4 16/25/4 13/24/4
f 17/13/2 20/26/2 14/23/2 15/14/2
f 35/29/2 34/30/2 20/26/2 17/13/2
f 36/31/4 33/32/4 18/28/4 19/27/4
f 34/30/1 36/31/1 19/27/1 20/26/1
f 33/32/3 35/29/3 17/13/3 18/28/3
f 22/33/8 24/34/8 28/35/8 26/36/8
f 18/28/9 17/13/9 23/16/9 24/34/9
f 15/14/10 16/25/10 22/33/10 21/15/10
f 16/25/11 18/28/11 24/34/11 22/33/11
f 28/35/5 27/37/5 39/38/5 40/39/5
f 21/15/12 22/33/12 26/36/12 25/40/12
f 24/34/13 23/16/13 27/37/13 28/35/13
f 23/16/14 21/15/14 25/40/14 27/37/14
f 30/41/2 32/42/2 44/43/2 42/44/2
f 27/37/2 25/40/2 37/45/2 39/38/2
f 26/36/4 28/35/4 40/39/4 38/46/4
f 25/40/7 26/36/7 38/46/7 37/45/7
f 6/22/3 8/21/3 35/29/3 33/32/3
f 4/18/1 2/17/1 36/31/1 34/30/1
f 2/17/4 6/22/4 33/32/4 36/31/4
f 8/21/2 4/18/2 34/30/2 35/29/2
f 30/41/3 29/47/3 37/45/3 38/46/3
f 29/47/3 31/48/3 39/38/3 37/45/3
f 32/42/3 30/41/3 38/46/3 40/39/3
f 31/48/3 32/42/3 40/39/3 39/38/3
f 44/43/3 43/49/3 41/50/3 42/44/3
f 29/47/5 30/41/5 42/44/5 41/50/5
f 32/42/7 31/48/7 43/49/7 44/43/7
f 31/48/4 29/47/4 41/50/4 43/49/4
