# Blender v2.90.1 OBJ File: 'Room.blend'
# www.blender.org
mtllib SecurityCameraMonitor.mtl
o SecurityCameraMonitor_Cube
v -0.010000 -0.008800 0.035971
v -0.010000 0.008800 0.035971
v -0.010000 -0.008800 -0.035971
v -0.010000 0.008800 -0.035971
v 0.010000 -0.107800 0.200200
v 0.010000 0.107800 0.200200
v 0.010000 -0.107800 -0.200200
v 0.010000 0.107800 -0.200200
v 0.175017 -0.099000 0.056883
v 0.019297 -0.039175 -0.011267
v 0.010000 0.118800 -0.211200
v 0.010000 -0.118800 -0.211200
v 0.010000 -0.118800 0.211200
v 0.010000 0.118800 0.211200
v 0.003464 0.107800 -0.200200
v 0.003464 -0.107800 -0.200200
v 0.003464 -0.107800 0.200200
v 0.003464 0.107800 0.200200
v -0.010000 -0.118800 -0.211200
v -0.010000 -0.118800 0.211200
v -0.010000 0.118800 0.211200
v -0.010000 0.118800 -0.211200
v -0.044344 -0.037870 -0.032254
v -0.044344 -0.037870 0.039687
v -0.044344 -0.020270 0.039687
v -0.044344 -0.020270 -0.032254
v -0.084332 -0.011274 -0.033494
v -0.084332 -0.011274 0.038447
v -0.084332 0.006326 0.038447
v -0.084332 0.006326 -0.033494
v -0.104692 -0.042592 -0.084731
v -0.104692 -0.042592 0.089684
v -0.104692 0.037645 0.089684
v -0.104692 0.037645 -0.084731
v -0.114692 -0.042592 -0.084731
v -0.114692 -0.042592 0.089684
v -0.114692 0.037645 0.089684
v -0.114692 0.037645 -0.084731
vt 0.509259 0.065104
vt 0.509259 0.184896
vt 0.509259 0.184896
vt 0.509259 0.065104
vt 0.375000 0.250000
vt 0.625000 0.250000
vt 0.625000 0.500000
vt 0.375000 0.500000
vt 0.386574 0.506510
vt 0.613426 0.506510
vt 0.613426 0.506510
vt 0.386574 0.506510
vt 0.375000 0.750000
vt 0.625000 0.750000
vt 0.625000 1.000000
vt 0.375000 1.000000
vt 0.125000 0.500000
vt 0.125000 0.750000
vt 0.875000 0.500000
vt 0.875000 0.750000
vt 0.386574 0.743490
vt 0.613426 0.743490
vt 0.613426 0.743490
vt 0.386574 0.743490
vt 0.490741 0.065104
vt 0.490741 0.184896
vt 0.375000 0.000000
vt 0.625000 0.000000
vt 0.490741 0.184896
vt 0.490741 0.184896
vt 0.509259 0.184896
vt 0.490741 0.065104
vt 0.490741 0.065104
vt 0.509259 0.065104
vt 0.509259 0.065104
vt 0.490741 0.065104
vt 0.509259 0.184896
vt 0.509259 0.184896
vt 0.509259 0.065104
vt 0.490741 0.184896
vt 0.490741 0.065104
vt 0.490741 0.184896
vn -0.6461 0.7633 0.0000
vn 0.0000 0.0000 -1.0000
vn 0.0000 0.0000 1.0000
vn 0.0000 -1.0000 0.0000
vn 0.0000 1.0000 0.0000
vn 1.0000 0.0000 0.0000
vn -1.0000 0.0000 0.0000
vn 0.0310 0.0000 -0.9995
vn 0.6461 -0.7633 0.0000
vn -0.1076 0.0000 -0.9942
vn 0.1076 0.0000 0.9942
vn 0.9293 0.0000 0.3693
vn -0.0310 0.0000 0.9995
vn 0.5538 0.8327 0.0000
vn -0.5538 -0.8327 0.0000
vn 0.8384 0.5450 0.0000
vn 0.8384 -0.5450 0.0000
vn 0.9293 0.0000 -0.3693
usemtl None
s off
f 2/1/1 4/2/1 26/3/1 25/4/1
f 19/5/2 22/6/2 11/7/2 12/8/2
f 7/9/3 8/10/3 15/11/3 16/12/3
f 13/13/3 14/14/3 21/15/3 20/16/3
f 19/17/4 12/8/4 13/13/4 20/18/4
f 11/7/5 22/19/5 21/20/5 14/14/5
f 8/10/6 7/9/6 12/8/6 11/7/6
f 7/9/6 5/21/6 13/13/6 12/8/6
f 6/22/6 8/10/6 11/7/6 14/14/6
f 5/21/6 6/22/6 14/14/6 13/13/6
f 16/12/6 15/11/6 18/23/6 17/24/6
f 6/22/2 5/21/2 17/24/2 18/23/2
f 5/21/5 7/9/5 16/12/5 17/24/5
f 8/10/4 6/22/4 18/23/4 15/11/4
f 1/25/7 3/26/7 19/5/7 20/27/7
f 2/1/7 1/25/7 20/27/7 21/28/7
f 4/2/7 2/1/7 21/28/7 22/6/7
f 3/26/7 4/2/7 22/6/7 19/5/7
f 26/3/8 23/29/8 27/30/8 30/31/8
f 3/26/9 1/25/9 24/32/9 23/29/9
f 4/2/10 3/26/10 23/29/10 26/3/10
f 1/25/11 2/1/11 25/4/11 24/32/11
f 28/33/12 29/34/12 33/35/12 32/36/12
f 24/32/13 25/4/13 29/34/13 28/33/13
f 25/4/14 26/3/14 30/31/14 29/34/14
f 23/29/15 24/32/15 28/33/15 27/30/15
f 33/35/5 34/37/5 38/38/5 37/39/5
f 29/34/16 30/31/16 34/37/16 33/35/16
f 27/30/17 28/33/17 32/36/17 31/40/17
f 30/31/18 27/30/18 31/40/18 34/37/18
f 36/41/7 37/39/7 38/38/7 35/42/7
f 31/40/4 32/36/4 36/41/4 35/42/4
f 34/37/2 31/40/2 35/42/2 38/38/2
f 32/36/3 33/35/3 37/39/3 36/41/3
